<svg width="88" height="48" viewBox="0 0 88 48" fill="none" xmlns="http://www.w3.org/2000/svg">
<path fill-rule="evenodd" clip-rule="evenodd" d="M34 17.2247V19.6236H36.619L35.3095 43H36.5L38.4494 25.4615H49.5506L51.5 43H52.6905L51.381 19.6236H54V17.2247C53.6292 17.0549 53.1884 16.9012 52.6905 16.7634V13.2744C52.6905 8.70456 48.8796 5 44.1786 5C39.4776 5 35.6667 8.70456 35.6667 13.2744V16.6962C35.0339 16.8506 34.4716 17.0268 34 17.2247ZM39 19.6236H49L49.3557 23.7077H38.6443L39 19.6236Z" fill="white"/>
<path d="M34 19.6236V17.2247C34.4716 17.0268 35.0339 16.8506 35.6667 16.6962M34 19.6236H39M34 19.6236H36.619L35.3095 43H36.5L38.4494 25.4615M54 19.6236V17.2247C53.6292 17.0549 53.1884 16.9012 52.6905 16.7634M54 19.6236H49M54 19.6236H51.381L52.6905 43H51.5L49.5506 25.4615M39 19.6236H49M39 19.6236L38.6443 23.7077M49 19.6236L49.3557 23.7077M35.6667 16.6962C40.2415 15.5798 48.4938 15.6023 52.6905 16.7634M35.6667 16.6962V13.2744M52.6905 16.7634V13.2744M38.6443 23.7077H49.3557M38.6443 23.7077L38.4494 25.4615M49.3557 23.7077L49.5506 25.4615M49.5506 25.4615H38.4494M35.6667 13.2744C35.6667 8.70456 39.4776 5 44.1786 5M35.6667 13.2744V13.2744C35.6667 8.70456 39.3712 5 43.941 5H44.1786M44.1786 5C48.8796 5 52.6905 8.70456 52.6905 13.2744M44.1786 5H44.4161C48.9859 5 52.6905 8.70456 52.6905 13.2744V13.2744" stroke="#020304" stroke-linejoin="round"/>
</svg>
