<svg width="88" height="48" viewBox="0 0 88 48" fill="none" xmlns="http://www.w3.org/2000/svg">
<path d="M38 28.3057H32V24.8552C32.5659 24.5704 33.2407 24.317 34 24.0949M38 28.3057H50M38 28.3057L35 43H33.5714L35.1429 28.3057M52.8571 28.3057L54.4286 43H53L50 28.3057M50 28.3057H56V24.8552C55.555 24.6109 55.0261 24.3897 54.4286 24.1916M34 24.0949V16.2143C34 10.5731 38.5731 6 44.2143 6V6C49.8555 6 54.4286 10.5731 54.4286 16.2143V24.1916M34 24.0949C39.4898 22.4891 49.3926 22.5214 54.4286 24.1916" stroke="#020304" stroke-linejoin="round"/>
</svg>
