<svg width="88" height="48" viewBox="0 0 88 48" fill="none" xmlns="http://www.w3.org/2000/svg">
<path d="M33.7018 14.6962C33.6767 13.9349 33.6023 5 43.9503 5C54.2982 5 54.2238 13.9349 54.1987 14.6962C54.1974 14.7346 54.1966 14.767 54.1966 14.8054V20.2927H57V29.5139H54.1966H45.3448V39.2927H52.5173V41.1463H51.6207V43H49.8276V41.1463H38.1724V43H36.3793V41.1463H35.4828V39.2927H42.6552V29.5139H33.7039H31V20.2927H33.7039V14.8054C33.7039 14.767 33.7031 14.7346 33.7018 14.6962Z" fill="white"/>
<path d="M33.7039 25.9323V29.5139M33.7039 25.9323C37.9921 24.9725 40.2517 24.921 43.9503 25.9323C47.7546 24.7894 50.0212 24.9364 54.1966 25.9323M33.7039 25.9323V20.2927M33.7039 29.5139H42.6552M33.7039 29.5139H31V20.2927H33.7039M54.1966 25.9323V29.5139M54.1966 25.9323V20.2927M54.1966 29.5139H42.6552M54.1966 29.5139H57V20.2927H54.1966M42.6552 29.5139V39.2927H35.4828V41.1463H36.3793M45.3448 29.5139V39.2927H52.5173V41.1463H38.1724M36.3793 41.1463V43H38.1724V41.1463M36.3793 41.1463H38.1724M33.7039 20.2927V14.8054C33.7039 14.767 33.7031 14.7346 33.7018 14.6962C33.6767 13.9349 33.6023 5 43.9503 5C54.2982 5 54.2238 13.9349 54.1987 14.6962C54.1974 14.7346 54.1966 14.767 54.1966 14.8054V20.2927M49.8276 41.1463V43H51.6207V41.1463H49.8276Z" stroke="#020304" stroke-linejoin="round"/>
</svg>
