<svg width="88" height="48" viewBox="0 0 88 48" fill="none" xmlns="http://www.w3.org/2000/svg">
<path d="M24 38.1356V22.7113C24 22.7113 24 19.8138 26.8571 19.8138C29.7143 19.8138 29.7143 22.7113 29.7143 22.7113V18.8469V7.72342C29.7143 6.86579 30.2603 6.10643 31.0912 5.89403C33.745 5.21562 39.6865 4.10014 44 6.28827C48.3135 4.10011 54.255 5.21561 56.9088 5.89402C57.7397 6.10643 58.2857 6.86578 58.2857 7.72341V22.7113C58.2857 22.7113 58.2857 19.8138 61.1429 19.8138C64 19.8138 64 22.7113 64 22.7113V38.1356C64 38.6879 63.5523 39.1356 63 39.1356H58.2857H56.381V42C56.381 42.5523 55.9332 43 55.381 43H52.619C52.0668 43 51.619 42.5523 51.619 42V39.1356H44H36.381V42C36.381 42.5523 35.9332 43 35.381 43H32.619C32.0668 43 31.619 42.5523 31.619 42V39.1356H29.7143H25C24.4477 39.1356 24 38.6879 24 38.1356Z" fill="white"/>
<path d="M29.7143 30.4408V22.7113M29.7143 30.4408V39.1356M29.7143 30.4408C35.693 29.129 38.8433 29.0586 44 30.4408C49.3041 28.8789 52.4642 29.0798 58.2857 30.4408M29.7143 22.7113V18.8469V7.72342C29.7143 6.86579 30.2603 6.10643 31.0912 5.89403C33.745 5.21562 39.6865 4.10014 44 6.28827C48.3135 4.10011 54.255 5.21561 56.9088 5.89402C57.7397 6.10643 58.2857 6.86578 58.2857 7.72341V22.7113M29.7143 22.7113C29.7143 22.7113 29.7143 19.8138 26.8571 19.8138C24 19.8138 24 22.7113 24 22.7113C24 22.7113 24 22.7113 24 22.7113V38.1356C24 38.6879 24.4477 39.1356 25 39.1356H29.7143M29.7143 39.1356H31.619M58.2857 30.4408V22.7113M58.2857 30.4408V39.1356M31.619 39.1356V42C31.619 42.5523 32.0668 43 32.619 43H35.381C35.9332 43 36.381 42.5523 36.381 42V39.1356M31.619 39.1356H36.381M36.381 39.1356H44H51.619M58.2857 22.7113C58.2857 22.7113 58.2857 19.8138 61.1429 19.8138C64 19.8138 64 22.7113 64 22.7113C64 22.7113 64 22.7113 64 22.7113V38.1356C64 38.6879 63.5523 39.1356 63 39.1356H58.2857M58.2857 39.1356H56.381M56.381 39.1356V42C56.381 42.5523 55.9332 43 55.381 43H52.619C52.0668 43 51.619 42.5523 51.619 42V39.1356M56.381 39.1356H51.619" stroke="#020304" stroke-linejoin="round"/>
</svg>
