<svg width="88" height="48" viewBox="0 0 88 48" fill="none" xmlns="http://www.w3.org/2000/svg">
<path d="M10.1951 41.0001V39.0001H15.3171V41.0001C15.3171 42.1046 14.3998 43 13.2683 43H12.2439C11.1124 43 10.1951 42.1046 10.1951 41.0001Z" fill="white"/>
<path d="M76.9311 41.0001V39.0001H71.8092V41.0001C71.8092 42.1046 72.7264 43 73.858 43H74.8823C76.0139 43 76.9311 42.1046 76.9311 41.0001Z" fill="white"/>
<path d="M7.11765 27.0002C7.11765 27.0002 14.8824 24.1458 24.4412 28.0002C30.4614 25.8352 37.9758 25.7237 44 27.8547C49.6213 25.8574 57.0026 25.9301 63.4412 27.8547C74 23.9999 80.8823 27.0002 80.8823 27.0002V22C80.8823 15.3726 75.5098 10 68.8823 10L19.1176 10C12.4902 10 7.11765 15.3726 7.11765 22V27.0002Z" fill="white"/>
<path d="M7.11765 27.0002V22C7.11765 15.3726 12.4902 10 19.1176 10L68.8823 10C75.5097 10 80.8823 15.3726 80.8823 22V27.0002M7.11765 27.0002C7.11765 27.0002 14.8824 24.1458 24.4412 28.0002C30.4614 25.8352 37.9758 25.7237 44 27.8547C49.6213 25.8574 57.0026 25.9301 63.4412 27.8547C74 23.9999 80.8823 27.0002 80.8823 27.0002M7.11765 27.0002V27.0002C4.16427 27.4934 2 30.049 2 33.0432V39.0001M2 39.0001H86M2 39.0001H10.1951M80.8823 27.0002V27.0002C83.8357 27.4934 86 30.049 86 33.0432V39.0001M86 39.0001H76.9311M10.1951 39.0001V41.0001C10.1951 42.1046 11.1124 43 12.2439 43H13.2683C14.3998 43 15.3171 42.1046 15.3171 41.0001V39.0001M10.1951 39.0001H15.3171M15.3171 39.0001H71.8092M76.9311 39.0001V41.0001C76.9311 42.1046 76.0139 43 74.8823 43H73.858C72.7264 43 71.8092 42.1046 71.8092 41.0001V39.0001M76.9311 39.0001H71.8092" stroke="#020304" stroke-linejoin="round"/>
</svg>
