<svg width="88" height="48" viewBox="0 0 88 48" fill="none" xmlns="http://www.w3.org/2000/svg">
<path d="M30.1538 40.161V39.0109H35.7436V40.161C35.7436 41.729 34.5038 43 32.9744 43H32.9231C31.3937 43 30.1538 41.729 30.1538 40.161Z" fill="white"/>
<path d="M26 23.0288V31.9275H62V23.0288V18.1989C62 17.4055 61.5322 16.6902 60.7811 16.4347C57.9222 15.4621 50.533 13.5435 44 16.8928C39.5786 13.4928 30.7451 15.5216 27.3617 16.4783C26.5387 16.711 26 17.468 26 18.3233V20.1898V23.0288Z" fill="white"/>
<path d="M62 31.9275H26V39.0109H30.1538H35.7436H52.2564H57.8462H62V31.9275Z" fill="white"/>
<path d="M57.8462 39.0109H52.2564V40.161C52.2564 41.729 53.4962 43 55.0256 43H55.0769C56.6063 43 57.8462 41.729 57.8462 40.161V39.0109Z" fill="white"/>
<path d="M26 31.9275V23.0288V20.1898V18.3233C26 17.468 26.5387 16.711 27.3617 16.4783C30.7451 15.5216 39.5786 13.4928 44 16.8928C50.533 13.5435 57.9222 15.4621 60.7811 16.4347C61.5322 16.6902 62 17.4055 62 18.1989V23.0288V31.9275M26 31.9275H62M26 31.9275V39.0109M62 31.9275V39.0109M26 39.0109H62M26 39.0109H30.1538M62 39.0109H57.8462M30.1538 39.0109V40.161C30.1538 41.729 31.3937 43 32.9231 43H32.9744C34.5038 43 35.7436 41.729 35.7436 40.161V39.0109M30.1538 39.0109H35.7436M35.7436 39.0109H52.2564M52.2564 39.0109V40.161C52.2564 41.729 53.4962 43 55.0256 43H55.0769C56.6063 43 57.8462 41.729 57.8462 40.161V39.0109M52.2564 39.0109H57.8462" stroke="#020304" stroke-linejoin="round"/>
</svg>
