<svg width="88" height="48" viewBox="0 0 88 48" fill="none" xmlns="http://www.w3.org/2000/svg">
<path d="M13.4146 41.15V39.3H18.0488V41.15C18.0488 42.1717 17.2189 43 16.1951 43H15.2683C14.2445 43 13.4146 42.1717 13.4146 41.15Z" fill="white"/>
<path d="M73.7948 41.15V39.3H69.1607V41.15C69.1607 42.1717 69.9906 43 71.0143 43H71.9412C72.9649 43 73.7948 42.1717 73.7948 41.15Z" fill="white"/>
<path d="M16.0588 21.6133V27.1404C21.9054 25.0446 24.927 25.2387 30.0294 27.1404C35.4763 25.1377 38.5495 25.1692 44 27.1404C49.0859 25.2928 52.1452 25.3601 57.9706 27.1404C63.2504 26.0143 66.2908 25.9168 71.9412 27.1404V21.6133V8.9287C71.9412 7.95474 71.2392 7.11856 70.2762 6.97234C65.4435 6.23853 62.4879 6.30123 57.9706 7.24287C52.6773 6.08806 49.6061 6.16858 44.4318 7.1591C44.1477 7.21347 43.8535 7.20679 43.572 7.14063C38.2827 5.89744 35.2292 5.96306 30.0294 7.24287C25.2454 5.76125 22.2831 5.57659 17.495 6.83833C16.6396 7.06373 16.0588 7.84923 16.0588 8.73383V21.6133Z" fill="white"/>
<path d="M16.0588 27.1404V21.6133C16.0588 21.6133 16.0588 17.1916 11.0294 17.1916C6.00003 17.1916 6 21.6133 6 21.6133C6 21.6133 6 21.6133 6 21.6133V39.3H13.4146H18.0488H69.1607H73.7948H82V21.6133C82 21.6133 82 21.6133 82 21.6133C82 21.6131 81.9999 17.1916 76.9706 17.1916C71.9412 17.1916 71.9412 21.6133 71.9412 21.6133V27.1404C66.2908 25.9168 63.2504 26.0143 57.9706 27.1404C52.1452 25.3601 49.0859 25.2928 44 27.1404C38.5495 25.1692 35.4763 25.1377 30.0294 27.1404C24.927 25.2387 21.9054 25.0446 16.0588 27.1404Z" fill="white"/>
<path d="M16.0588 21.6133V27.1404C21.9054 25.0446 24.927 25.2387 30.0294 27.1404C35.4763 25.1377 38.5495 25.1692 44 27.1404C49.0859 25.2928 52.1452 25.3601 57.9706 27.1404C63.2504 26.0143 66.2908 25.9168 71.9412 27.1404V21.6133M16.0588 21.6133V8.73383C16.0588 7.84923 16.6396 7.06373 17.495 6.83833C22.2831 5.57659 25.2454 5.76125 30.0294 7.24287C35.2292 5.96306 38.2827 5.89744 43.572 7.14063C43.8535 7.20679 44.1477 7.21347 44.4318 7.1591C49.6061 6.16858 52.6773 6.08806 57.9706 7.24287C62.4879 6.30123 65.4435 6.23853 70.2762 6.97234C71.2391 7.11856 71.9412 7.95474 71.9412 8.9287V21.6133M16.0588 21.6133C16.0588 21.6133 16.0588 17.1916 11.0294 17.1916C6.00003 17.1916 6 21.6133 6 21.6133C6 21.6133 6 21.6133 6 21.6133V39.3M6 39.3H82M6 39.3H13.4146M71.9412 21.6133C71.9412 21.6133 71.9412 17.1916 76.9706 17.1916C81.9999 17.1916 82 21.6131 82 21.6133C82 21.6133 82 21.6133 82 21.6133V39.3M82 39.3H73.7948M13.4146 39.3V41.15C13.4146 42.1717 14.2445 43 15.2683 43H16.1951C17.2189 43 18.0488 42.1717 18.0488 41.15V39.3M13.4146 39.3H18.0488M18.0488 39.3H69.1607M73.7948 39.3V41.15C73.7948 42.1717 72.9649 43 71.9412 43H71.0143C69.9906 43 69.1607 42.1717 69.1607 41.15V39.3M73.7948 39.3H69.1607" stroke="#020304" stroke-linejoin="round"/>
</svg>
