<svg width="88" height="48" viewBox="0 0 88 48" fill="none" xmlns="http://www.w3.org/2000/svg">
<path d="M16.7007 31.7977V30.3873H20.2636V31.7977C20.2636 32.5767 19.6255 33.2082 18.8385 33.2082H18.1259C17.3388 33.2082 16.7007 32.5767 16.7007 31.7977Z" fill="white"/>
<path d="M63.1229 31.7977V30.3873H59.56V31.7977C59.56 32.5767 60.1981 33.2082 60.9852 33.2082H61.6978C62.4848 33.2082 63.1229 32.5767 63.1229 31.7977Z" fill="white"/>
<path d="M18.7337 16.9033V21.1171C23.2287 19.5192 25.5518 19.6673 29.4747 21.1171C33.6624 19.5902 36.0252 19.6142 40.2157 21.1171C44.1259 19.7085 46.478 19.7598 50.9567 21.1171C55.016 20.2585 57.3536 20.1842 61.6978 21.1171V16.9033V7.63577C61.6978 6.66075 60.9947 5.82215 60.0295 5.68432C56.5402 5.18606 54.3072 5.25499 50.9567 5.94754C46.9199 5.07424 44.5641 5.1276 40.6437 5.86552C40.3618 5.91858 40.0712 5.91205 39.7917 5.84757C35.7833 4.92264 33.4412 4.97946 29.4747 5.94754C25.9106 4.85299 23.6616 4.68688 20.1762 5.55286C19.316 5.76656 18.7337 6.55578 18.7337 7.44208V16.9033Z" fill="white"/>
<path d="M18.7337 21.1171V16.9033C18.7337 16.9033 18.7337 13.5323 14.8669 13.5323C11.0001 13.5323 11.0001 16.9033 11.0001 16.9033C11.0001 16.9033 11.0001 16.9033 11.0001 16.9033V30.3873H16.7007H20.2636H59.56H63.1229H69.4313V16.9033C69.4313 16.9033 69.4313 16.9033 69.4313 16.9033C69.4313 16.9031 69.4312 13.5323 65.5645 13.5323C61.6978 13.5323 61.6978 16.9033 61.6978 16.9033V21.1171C57.3536 20.1842 55.016 20.2585 50.9567 21.1171C46.478 19.7598 44.1259 19.7085 40.2157 21.1171C36.0252 19.6142 33.6624 19.5902 29.4747 21.1171C25.5518 19.6673 23.2287 19.5192 18.7337 21.1171Z" fill="white"/>
<path d="M18.7337 16.9033V21.1171C23.2287 19.5192 25.5518 19.6673 29.4747 21.1171C33.6624 19.5902 36.0252 19.6142 40.2157 21.1171C44.1259 19.7085 46.478 19.7598 50.9567 21.1171C55.016 20.2585 57.3536 20.1842 61.6978 21.1171V16.9033M18.7337 16.9033V7.44208C18.7337 6.55578 19.316 5.76656 20.1762 5.55286C23.6616 4.68688 25.9106 4.85299 29.4747 5.94754C33.4412 4.97946 35.7833 4.92264 39.7917 5.84757C40.0712 5.91205 40.3618 5.91858 40.6437 5.86552C44.5641 5.1276 46.9199 5.07424 50.9567 5.94754C54.3072 5.25499 56.5402 5.18606 60.0295 5.68432C60.9947 5.82215 61.6978 6.66075 61.6978 7.63577V16.9033M18.7337 16.9033C18.7337 16.9033 18.7337 13.5323 14.8669 13.5323C11.0001 13.5323 11.0001 16.9033 11.0001 16.9033C11.0001 16.9033 11.0001 16.9033 11.0001 16.9033V30.3873M11.0001 30.3873H69.4313M11.0001 30.3873H16.7007M61.6978 16.9033C61.6978 16.9033 61.6978 13.5323 65.5645 13.5323C69.4312 13.5323 69.4313 16.9031 69.4313 16.9033C69.4313 16.9033 69.4313 16.9033 69.4313 16.9033V30.3873M69.4313 30.3873H63.1229M16.7007 30.3873V31.7977C16.7007 32.5767 17.3388 33.2082 18.1259 33.2082H18.8385C19.6255 33.2082 20.2636 32.5767 20.2636 31.7977V30.3873M16.7007 30.3873H20.2636M20.2636 30.3873H59.56M63.1229 30.3873V31.7977C63.1229 32.5767 62.4848 33.2082 61.6978 33.2082H60.9852C60.1981 33.2082 59.56 32.5767 59.56 31.7977V30.3873M63.1229 30.3873H59.56" stroke="#020304" stroke-linejoin="round"/>
<path d="M17.1924 41.3707V39.7414H20.8463V41.3707C20.8463 42.2705 20.1919 43 19.3847 43H18.654C17.8468 43 17.1924 42.2705 17.1924 41.3707Z" fill="white"/>
<path d="M15.0001 28.6077V35.6763H34.0001V28.6077V26.3474C34.0001 25.577 33.5578 24.8753 32.8243 24.6397C31.0582 24.0723 27.5969 23.3599 24.5001 25.0863C22.3968 23.3275 18.4018 24.0999 16.3264 24.6715C15.5206 24.8934 15.0001 25.6411 15.0001 26.4769V26.9784V28.6077Z" fill="white"/>
<path d="M34.0001 35.6763H15.0001V39.7414H17.1924H20.8463H28.154H31.8078H34.0001V35.6763Z" fill="white"/>
<path d="M31.8078 39.7414H28.154V41.3707C28.154 42.2705 28.8083 43 29.6155 43H30.3463C31.1535 43 31.8078 42.2705 31.8078 41.3707V39.7414Z" fill="white"/>
<path d="M15.0001 35.6763V28.6077V26.9784V26.4769C15.0001 25.6411 15.5206 24.8934 16.3264 24.6715C18.4018 24.0999 22.3968 23.3275 24.5001 25.0863C27.5969 23.3599 31.0582 24.0723 32.8243 24.6397C33.5578 24.8753 34.0001 25.577 34.0001 26.3474V28.6077V35.6763M15.0001 35.6763H34.0001M15.0001 35.6763V39.7414M34.0001 35.6763V39.7414M15.0001 39.7414H34.0001M15.0001 39.7414H17.1924M34.0001 39.7414H31.8078M17.1924 39.7414V41.3707C17.1924 42.2705 17.8468 43 18.654 43H19.3847C20.1919 43 20.8463 42.2705 20.8463 41.3707V39.7414M17.1924 39.7414H20.8463M20.8463 39.7414H28.154M28.154 39.7414V41.3707C28.154 42.2705 28.8083 43 29.6155 43H30.3463C31.1535 43 31.8078 42.2705 31.8078 41.3707V39.7414M28.154 39.7414H31.8078" stroke="#020304" stroke-linejoin="round"/>
<path d="M56.0001 30.6886V27.7976C56.4953 27.559 57.0858 27.3467 57.7501 27.1606V20.9375C57.7501 16.0015 61.7516 12 66.6876 12C71.6237 12 75.6251 16.0015 75.6251 20.9375V27.2416C76.1479 27.4076 76.6108 27.5929 77.0001 27.7976V30.6886H74.2501L75.6251 43H74.3751L71.7501 30.6886H61.2501L58.6251 43H57.3751L58.7501 30.6886H56.0001Z" fill="white"/>
<path d="M61.2501 30.6886H56.0001V27.7976C56.4953 27.559 57.0858 27.3467 57.7501 27.1606M61.2501 30.6886H71.7501M61.2501 30.6886L58.6251 43H57.3751L58.7501 30.6886M74.2501 30.6886L75.6251 43H74.3751L71.7501 30.6886M71.7501 30.6886H77.0001V27.7976C76.6108 27.5929 76.1479 27.4076 75.6251 27.2416M57.7501 27.1606V20.9375C57.7501 16.0015 61.7516 12 66.6876 12V12C71.6237 12 75.6251 16.0015 75.6251 20.9375V27.2416M57.7501 27.1606C62.5537 25.8152 71.2186 25.8423 75.6251 27.2416" stroke="#020304" stroke-linejoin="round"/>
</svg>
