<svg width="28" height="28" viewBox="0 0 28 28" fill="none" xmlns="http://www.w3.org/2000/svg">
<path fill-rule="evenodd" clip-rule="evenodd" d="M9.51514 21.6636C9.9287 21.6636 10.2648 21.9997 10.2648 22.4133C10.2648 22.8268 9.9287 23.162 9.51514 23.162C9.10158 23.162 8.76642 22.8268 8.76642 22.4133C8.76642 21.9997 9.10158 21.6636 9.51514 21.6636Z" stroke="#020304" stroke-linecap="round" stroke-linejoin="round"/>
<path fill-rule="evenodd" clip-rule="evenodd" d="M20.5422 21.6636C20.9557 21.6636 21.2919 21.9997 21.2919 22.4133C21.2919 22.8268 20.9557 23.162 20.5422 23.162C20.1286 23.162 19.7925 22.8268 19.7925 22.4133C19.7925 21.9997 20.1286 21.6636 20.5422 21.6636Z" stroke="#020304" stroke-linecap="round" stroke-linejoin="round"/>
<path d="M4.93555 5.4248L6.97395 5.7776L7.91769 17.0211C7.99413 17.9374 8.75951 18.6411 9.67875 18.6411H20.3725C21.2506 18.6411 21.9954 17.9962 22.1218 17.126L23.0518 10.6992C23.1665 9.90635 22.552 9.19682 21.7514 9.19682H7.30127" stroke="#020304" stroke-linecap="round" stroke-linejoin="round"/>
</svg>
