<svg width="70" height="37" viewBox="0 0 70 37" fill="none" xmlns="http://www.w3.org/2000/svg">
<path d="M1.24338 31.2402H1.12473V31.3589V35.9966V36.1152H1.24338H2.90665C3.63053 36.1152 4.1894 36.0059 4.56693 35.7972C4.95519 35.5871 5.22995 35.2964 5.42387 34.9248C5.61878 34.5663 5.71126 34.1339 5.71126 33.6478C5.71126 33.1284 5.59875 32.6811 5.393 32.3092L5.39303 32.3091L5.39175 32.307C5.19269 31.9646 4.9015 31.6894 4.52751 31.5104C4.15104 31.3301 3.5825 31.2402 2.813 31.2402H1.24338ZM3.97038 35.1879L3.97037 35.1879L3.96806 35.189C3.73417 35.3009 3.35896 35.361 2.84297 35.361H2.09626V31.9383H2.83173C3.39249 31.9383 3.76566 31.9984 4.01309 32.1234C4.24696 32.2492 4.42657 32.4419 4.53955 32.7055C4.65508 32.9751 4.71346 33.3101 4.71351 33.696C4.7098 34.1107 4.65076 34.4254 4.52531 34.6593C4.39783 34.8971 4.21784 35.0761 3.97038 35.1879Z" fill="#020304" stroke="white" stroke-width="0.237288"/>
<path d="M11.9231 31.2402H11.8044V31.3589V35.9966V36.1152H11.9231H15.3096H15.4282V35.9966V35.4909V35.3722H15.3096H12.7722V33.9163H14.8038H14.9225V33.7976V33.3256V33.207H14.8038H12.7722V31.9945H15.111H15.2297V31.8758V31.3589V31.2402H15.111H11.9231Z" fill="#020304" stroke="white" stroke-width="0.237288"/>
<path d="M24.3815 33.2136L24.3813 33.2135L24.0292 33.0899C23.6834 32.9685 23.4598 32.8659 23.3141 32.7932C23.1869 32.7242 23.0836 32.6416 23.0185 32.5556C22.9543 32.4619 22.9172 32.3657 22.9172 32.2578C22.9172 32.1174 22.9848 31.9788 23.1359 31.8445L23.1359 31.8445L23.137 31.8436C23.2732 31.7195 23.5104 31.646 23.8662 31.646C24.0429 31.646 24.1886 31.6604 24.33 31.6886L24.3305 31.6887C24.4629 31.7146 24.5459 31.7642 24.6065 31.8248C24.6644 31.8827 24.6804 31.9326 24.6804 31.9694V31.9994V32.118H24.799H25.5295H25.6482V31.9994V31.9694C25.6482 31.6797 25.499 31.4332 25.2319 31.2476C24.9556 31.0405 24.5103 30.9517 23.9112 30.9517C23.259 30.9517 22.7553 31.0769 22.4177 31.3445L22.4177 31.3445L22.4172 31.3449C22.0901 31.6073 21.9157 31.9318 21.9157 32.3215C21.9157 32.5354 21.9637 32.7424 22.0868 32.9196C22.1908 33.1106 22.3622 33.257 22.5621 33.3965C22.7761 33.5459 23.0949 33.6704 23.4895 33.8082L23.7925 33.9167L23.7925 33.9167L23.796 33.9179C24.1667 34.0378 24.43 34.1676 24.6193 34.2849C24.7001 34.3465 24.7541 34.4059 24.7886 34.4677C24.823 34.5295 24.8415 34.6001 24.8415 34.6891C24.8415 34.893 24.7524 35.0712 24.5687 35.2034C24.3802 35.3389 24.1329 35.4095 23.8288 35.4095C23.4694 35.4095 23.2013 35.3652 22.9956 35.2675C22.8959 35.2201 22.8313 35.1648 22.7905 35.1007C22.7497 35.0366 22.7262 34.9534 22.7262 34.8389V34.8089V34.6903H22.6075H21.877H21.7584V34.8089V34.8389C21.7584 35.0967 21.844 35.3185 21.9933 35.5324L21.9929 35.5327L21.9996 35.5406C22.1697 35.744 22.4034 35.8937 22.6941 35.9893L22.694 35.9895L22.7013 35.9914C23.0003 36.0691 23.3625 36.1188 23.7838 36.1188C24.2357 36.1188 24.6038 36.0577 24.8953 35.9419C25.1908 35.8245 25.4072 35.645 25.5734 35.4139C25.7401 35.1821 25.8242 34.9297 25.8242 34.6741C25.8242 34.4021 25.7242 34.1334 25.5263 33.9011C25.4321 33.7655 25.2853 33.6442 25.0977 33.5333C24.9067 33.4204 24.6668 33.3144 24.3815 33.2136Z" fill="#020304" stroke="white" stroke-width="0.237288"/>
<path d="M34.4968 31.3589V31.2402H34.3782H33.6477H33.529V31.3589V35.9966V36.1152H33.6477H34.3782H34.4968V35.9966V31.3589Z" fill="#020304" stroke="white" stroke-width="0.237288"/>
<path d="M44.3954 34.1446H45.5429V35.2631C45.1736 35.3675 44.8466 35.417 44.564 35.417C44.0575 35.417 43.6672 35.2449 43.4053 34.9257C43.1373 34.5842 42.9893 34.1252 42.9893 33.5352C42.9893 32.9426 43.1237 32.4847 43.3903 32.1448C43.6522 31.8256 44.0276 31.6535 44.564 31.6535C44.7663 31.6535 44.9386 31.6818 45.0813 31.7236L45.0813 31.7236L45.0841 31.7244C45.2306 31.7635 45.3354 31.8313 45.4361 31.9147C45.5187 31.9831 45.5467 32.0588 45.5467 32.1267V32.1567V32.2753H45.6653H46.3508H46.4695V32.1567V32.1267C46.4695 31.905 46.3769 31.7091 46.1947 31.5108L46.1888 31.5043L46.1819 31.4987C45.98 31.3356 45.753 31.1913 45.4605 31.1067C45.1746 31.013 44.8556 30.9629 44.5115 30.9629C43.9963 30.9629 43.5478 31.055 43.173 31.2661C42.7887 31.4741 42.4991 31.7472 42.289 32.104C42.0747 32.4678 41.9841 32.9648 41.9841 33.5839C41.9841 34.1497 42.0957 34.6149 42.3236 34.9868C42.548 35.3567 42.8372 35.6305 43.2092 35.8244C43.5841 36.0199 44.062 36.1113 44.6389 36.1113C45.2076 36.1113 45.7841 35.9836 46.3896 35.7513L46.4657 35.7221V35.6406V33.554V33.4353H46.3471H44.3954H44.2767V33.554V34.026V34.1446H44.3954Z" fill="#020304" stroke="white" stroke-width="0.237288"/>
<path d="M55.8284 31.2402H55.7097V31.3589V34.5805L55.7081 34.5783L53.1158 31.2855L53.0801 31.2402H53.0225H52.2883H52.1697V31.3589V35.9966V36.1152H52.2883H52.9738H53.0925V35.9966V32.734L53.1035 32.7506L53.1032 32.7508L53.1088 32.7579L55.6899 36.0695L55.7255 36.1152H55.7834H56.5139H56.6326V35.9966V31.3589V31.2402H56.5139H55.8284Z" fill="#020304" stroke="white" stroke-width="0.237288"/>
<path d="M62.5411 31.2402H62.4225V31.3589V35.9966V36.1152H62.5411H65.9276H66.0463V35.9966V35.4909V35.3722H65.9276H63.3903V33.9163H65.4219H65.5405V33.7976V33.3256V33.207H65.4219H63.3903V31.9945H65.7291H65.8477V31.8758V31.3589V31.2402H65.7291H62.5411Z" fill="#020304" stroke="white" stroke-width="0.237288"/>
<path d="M1 0.881356H0.881356V1V27.0093V27.1279H1H13.0513H13.1699V27.0093V25.8068V25.6881H13.0513H2.32489V1V0.881356H2.20625H1Z" fill="#020304" stroke="white" stroke-width="0.237288"/>
<path d="M57.2139 0.881356H57.0952V1V2.20625V2.32489H57.2139H62.5271V27.0093V27.1279H62.6457H63.837H63.9557V27.0093V2.32489H69.2689H69.3875V2.20625V1V0.881356H69.2689H57.2139Z" fill="#020304" stroke="white" stroke-width="0.237288"/>
<path d="M40.1131 0.881356H39.9945V1V27.0093V27.1279H40.1131H41.3044H41.423V27.0093V20.842H49.115H49.2337V20.7233V19.5208V19.4022H49.115H41.423V2.32489H52.2431H52.3617V2.20625V1V0.881356H52.2431H40.1131Z" fill="#020304" stroke="white" stroke-width="0.237288"/>
<path d="M17.6148 26.9944V27.1131H17.7334H35.962H36.0807V26.9944V1.06006V0.941415H35.962H17.7334H17.6148V1.06006V26.9944ZM22.0622 25.6695L24.0323 21.7898H24.0722L24.0909 21.6939L24.3157 20.5386H29.8255L30.0503 21.6939L30.069 21.7898H30.1239L32.094 25.6695H22.0622ZM27.3459 14.1178H27.4646V13.9992V10.5625C28.1715 10.7374 28.5738 11.0742 28.8011 11.368C28.923 11.5255 28.996 11.6726 29.0384 11.7791C29.0595 11.8324 29.073 11.8754 29.081 11.9044C29.085 11.9189 29.0877 11.9299 29.0893 11.9368L29.0898 11.9393L29.4793 18.8666H24.527L24.9165 11.9393L24.9171 11.9367C24.9187 11.9297 24.9213 11.9187 24.9253 11.9042C24.9334 11.8751 24.9468 11.8319 24.968 11.7785C25.0104 11.6716 25.0834 11.5243 25.2053 11.3665C25.4326 11.0723 25.8348 10.7355 26.5418 10.5622V13.9992V14.1178H26.6604H27.3459ZM30.2304 12.1486L30.3489 12.1385L30.3477 12.1305C30.1649 10.942 29.4157 10.1694 28.7229 9.69748C28.3762 9.46129 28.0412 9.2986 27.7928 9.19491C27.6686 9.143 27.5657 9.10574 27.4934 9.08133C27.4832 9.07788 27.4736 9.07468 27.4646 9.07173V6.47197H32.7478H32.8665V6.35332V5.68787C32.8979 5.6566 32.9456 5.6069 32.9921 5.5478C33.0627 5.45815 33.1474 5.32699 33.1614 5.18495C33.1688 5.11027 33.1567 5.03115 33.1122 4.95679C33.0684 4.88338 32.9985 4.82386 32.9059 4.77739C32.7246 4.68646 32.4353 4.63509 31.9986 4.63509H27.5445H26.4619H22.0077C21.5719 4.63509 21.2831 4.68646 21.102 4.77742C21.0095 4.82389 20.9397 4.8834 20.8958 4.95673C20.8513 5.03101 20.8391 5.11004 20.8463 5.18469C20.86 5.32671 20.9443 5.4579 21.0146 5.5476C21.061 5.60679 21.1085 5.65649 21.1399 5.68779V6.33834V6.45698H21.2585H26.5418V9.05675C26.5328 9.05969 26.5232 9.06289 26.5129 9.06635C26.4407 9.09075 26.3378 9.12802 26.2135 9.17992C25.9652 9.28362 25.6301 9.4463 25.2834 9.6825C24.5906 10.1544 23.8415 10.927 23.6586 12.1155L23.6584 12.1155L23.6577 12.1236L23.7759 12.1336L23.6577 12.1236L23.6576 12.1238L23.6576 12.1245L23.6573 12.1275L23.6564 12.1391L23.6525 12.1845L23.6379 12.358C23.6253 12.5082 23.6073 12.7244 23.5855 12.9884C23.542 13.5163 23.4834 14.2355 23.4235 15.0004C23.3096 16.4536 23.1902 18.076 23.1594 18.8628H20.8165H20.6978V18.9815V19.3037V19.4223H20.8165H22.6292L23.1403 21.6023V21.6525V21.7445L20.9013 25.6546H19.0583V2.41492H34.6409V25.6695H33.2399L31.0009 21.7595V21.6675V21.5534L31.497 19.4373H33.0812H33.1999V19.3186V18.9965V18.8778H33.0812H30.847C30.8161 18.0895 30.6968 16.4669 30.5829 15.014C30.5229 14.2493 30.4644 13.5305 30.4208 13.0028C30.399 12.739 30.381 12.5229 30.3684 12.3728L30.3538 12.1994L30.35 12.154L30.349 12.1425L30.3488 12.1395L30.3487 12.1388L30.3487 12.1386L30.2304 12.1486ZM24.4699 19.7394L24.5296 19.426H29.6122L29.674 19.7394H24.4699Z" fill="#020304" stroke="white" stroke-width="0.237288"/>
</svg>
